<?xml version="1.0" standalone="no"?>
<!DOCTYPE svg PUBLIC "-//W3C//DTD SVG 20010904//EN"
 "http://www.w3.org/TR/2001/REC-SVG-20010904/DTD/svg10.dtd">
<svg version="1.0" xmlns="http://www.w3.org/2000/svg"
 width="512.000000pt" height="512.000000pt" viewBox="0 0 512.000000 512.000000"
 preserveAspectRatio="xMidYMid meet">

<g transform="translate(0.000000,512.000000) scale(0.100000,-0.100000)"
fill="#ffffff" stroke="none">
<path d="M2519 5101 l-24 -19 0 -287 0 -287 24 -19 c32 -26 67 -24 96 6 l25
24 0 276 0 276 -25 24 c-29 30 -64 32 -96 6z"/>
<path d="M1620 4820 c-41 -41 -29 -66 126 -277 80 -109 157 -209 169 -222 46
-48 125 -20 125 44 0 25 -20 60 -87 151 -157 216 -232 311 -248 318 -31 12
-65 6 -85 -14z"/>
<path d="M3412 4823 c-11 -10 -88 -109 -171 -221 -123 -166 -151 -209 -151
-236 0 -20 8 -40 19 -50 22 -20 74 -24 95 -7 8 7 85 106 170 220 134 178 156
213 156 244 0 60 -72 90 -118 50z"/>
<path d="M4384 4412 c-23 -15 -34 -52 -34 -111 l0 -61 -54 0 c-101 0 -151 -40
-127 -103 14 -36 40 -47 115 -47 l66 0 0 -70 c0 -62 3 -74 25 -95 13 -14 36
-25 50 -25 14 0 37 11 50 25 22 21 25 33 25 95 l0 70 66 0 c36 0 74 5 85 11
29 15 42 57 29 90 -15 35 -48 49 -120 49 l-60 0 0 68 c0 55 -4 73 -20 90 -21
22 -73 30 -96 14z"/>
<path d="M2520 4074 c-8 -2 -291 -38 -627 -78 -603 -73 -614 -75 -671 -106
-33 -17 -77 -50 -99 -73 -35 -36 -758 -1082 -791 -1144 -7 -12 -12 -31 -12
-42 0 -23 2046 -2530 2104 -2578 88 -72 213 -68 295 10 18 18 316 378 662 800
497 606 629 774 629 795 0 69 -83 96 -132 44 -14 -15 -254 -305 -532 -645
-278 -340 -506 -614 -506 -608 0 13 509 2104 514 2108 1 2 276 2 611 1 l608
-3 -237 -289 c-130 -159 -239 -300 -242 -313 -15 -59 43 -108 96 -82 24 12
556 647 608 726 8 13 12 35 10 50 -3 16 -174 276 -381 578 -394 574 -443 637
-536 677 -35 15 -192 38 -651 94 -664 81 -698 85 -720 78z m360 -738 c154
-325 282 -598 286 -608 5 -17 -7 -18 -225 -18 -218 0 -232 -1 -251 -20 -27
-27 -26 -81 1 -106 19 -17 43 -19 263 -24 l242 -5 -291 -1194 c-260 -1067
-293 -1195 -312 -1204 -39 -17 -71 -1 -82 41 -28 101 -571 2339 -571 2350 0 9
52 12 228 12 242 0 266 4 288 49 15 29 1 77 -26 91 -11 6 -116 10 -244 10
-124 0 -226 2 -226 5 0 8 551 1169 566 1193 11 17 23 22 45 20 28 -3 38 -21
309 -592z m-530 560 c0 -4 -493 -1046 -507 -1070 -8 -15 -59 75 -262 464 -139
265 -251 483 -249 484 3 3 960 122 1001 125 9 0 17 -1 17 -3z m970 -62 c261
-31 477 -59 479 -60 4 -3 -485 -943 -498 -956 -3 -4 -121 234 -260 530 -140
295 -257 541 -259 546 -3 5 10 6 29 3 19 -3 248 -31 509 -63z m-1841 -672
c128 -244 231 -446 228 -448 -2 -2 -266 -3 -586 -2 l-582 3 312 455 c171 250
320 468 331 483 l20 29 23 -39 c12 -21 126 -238 254 -481z m2785 33 c179 -262
326 -477 326 -480 0 -3 -264 -5 -586 -5 -325 0 -584 4 -582 9 18 47 504 958
509 955 4 -2 154 -218 333 -479z m-2479 -657 c161 -649 509 -2095 504 -2092
-6 4 -1675 2041 -1722 2102 -7 9 114 12 602 12 l611 0 5 -22z"/>
<path d="M815 1225 c-22 -21 -25 -33 -25 -95 l0 -70 -74 0 c-69 0 -76 -2 -95
-26 -24 -31 -26 -43 -10 -78 14 -31 56 -46 125 -46 l54 0 0 -68 c0 -82 20
-112 75 -112 51 0 75 36 75 115 l0 63 70 4 c82 4 113 26 113 79 0 50 -31 69
-114 69 l-69 0 0 70 c0 62 -3 74 -25 95 -13 14 -36 25 -50 25 -14 0 -37 -11
-50 -25z"/>
</g>
</svg>
